<?xml version="1.0" encoding="UTF-8"?>
<!DOCTYPE svg PUBLIC "-//W3C//DTD SVG 1.1//EN" "http://www.w3.org/Graphics/SVG/1.1/DTD/svg11.dtd">
<!-- Creator: CorelDRAW -->
<svg xmlns="http://www.w3.org/2000/svg" xml:space="preserve" width="100mm" height="65.458mm" version="1.1" style="shape-rendering:geometricPrecision; text-rendering:geometricPrecision; image-rendering:optimizeQuality; fill-rule:evenodd; clip-rule:evenodd"
viewBox="0 0 10000 6545.8"
 xmlns:xlink="http://www.w3.org/1999/xlink"
 xmlns:xodm="http://www.corel.com/coreldraw/odm/2003">
 <defs>
  <style type="text/css">
   <![CDATA[
    .fil0 {fill:url(#id0)}
    .fil1 {fill:url(#id1);fill-rule:nonzero}
   ]]>
  </style>
  <linearGradient id="id0" gradientUnits="userSpaceOnUse" x1="5543.39" y1="4069.13" x2="5543.39" y2="0.52">
   <stop offset="0" style="stop-opacity:1; stop-color:#FF7200"/>
   <stop offset="1" style="stop-opacity:1; stop-color:#FFA00B"/>
  </linearGradient>
  <linearGradient id="id1" gradientUnits="userSpaceOnUse" xlink:href="#id0" x1="4992.87" y1="6546.36" x2="4992.87" y2="4502.31">
  </linearGradient>
 </defs>
 <g id="Camada_x0020_1">
  <metadata id="CorelCorpID_0Corel-Layer"/>
  <path class="fil0" d="M4417.85 2105.25l805.41 760.73 4480.8 -2307.95c5.02,-2.58 11.14,-0.94 14.19,3.83 3.04,4.77 1.96,11.01 -2.5,14.47l-4487.66 3490.47c-4.43,3.44 -10.67,2.99 -14.56,-1.05l-2099.18 -2181.39c-53.58,-55.68 -120.54,-165.61 8.17,-178.03 248.03,-23.96 788.96,-13.3 963.27,-202.96 250.85,-272.97 75.02,-767.54 -314.05,-767.54l-1992.64 0c-4.04,0 -7.52,-2.03 -9.51,-5.57l-401.35 -713.49c-1.95,-3.47 -1.92,-7.42 0.1,-10.86 2.01,-3.43 5.43,-5.39 9.41,-5.39l2746.83 0c358.56,0 653.44,131.82 845.59,442.94 132.06,213.81 159.08,465.09 145.49,711.25 -25.18,456.37 -238.91,829.49 -697.81,950.54zm-1654.2 525.01l0 1202.84c0,6.01 -4.89,10.9 -10.9,10.9l-822.3 0c-6.01,0 -10.91,-4.89 -10.91,-10.9l0 -2803.92c0,-6.01 4.9,-10.9 10.91,-10.9l822.3 0c6.01,0 10.9,4.89 10.9,10.9l0 926.42 893.69 965.25c3.45,3.72 3.9,9.14 1.12,13.38 -2.78,4.25 -7.93,6 -12.72,4.32l-882.09 -308.29zm4601.93 1196.1l0 -1036.09c0,-3.42 1.42,-6.37 4.09,-8.52l768.38 -615.25c3.35,-2.68 7.67,-3.17 11.54,-1.31 3.87,1.85 6.18,5.53 6.18,9.83l0 1651.34c0,6 -4.9,10.9 -10.9,10.9l-768.38 0c-6.01,0 -10.91,-4.9 -10.91,-10.9zm-1171.19 -2615.74l1103.79 -77.02 0 -1122.18c0,-6.01 4.9,-10.9 10.91,-10.9l835.78 0c6,0 10.9,4.89 10.9,10.9l0 1011.02c0,4.21 -2.21,7.82 -5.96,9.72l-2797.16 1422.18c-3.48,1.77 -7.32,1.62 -10.65,-0.43 -3.33,-2.04 -5.2,-5.39 -5.2,-9.29l0 -2433.2c0,-6.01 4.9,-10.9 10.91,-10.9l835.77 0c6.01,0 10.91,4.89 10.91,10.9l0 1199.2z"/>
  <path class="fil1" d="M-7.14 6239.5l360.12 0 126.8 -674.59 111.59 0c144.55,0 215.56,63.4 233.32,271.36 15.21,210.49 32.96,357.58 48.18,403.23l375.34 0c-30.44,-71.01 -43.12,-294.18 -65.94,-486.92 -15.22,-154.7 -60.87,-266.29 -162.31,-311.94l0 -7.6c220.64,-71.01 388.02,-230.78 388.02,-484.39 0,-157.23 -78.62,-266.28 -190.21,-332.22 -119.19,-76.08 -286.57,-98.91 -448.88,-98.91 -169.91,0 -342.36,15.22 -456.49,43.11l-319.54 1678.87zm631.48 -1422.72c30.43,-7.61 73.54,-12.68 142.02,-12.68 147.09,0 261.21,60.86 261.21,200.34 0,167.38 -144.56,286.58 -342.37,286.58l-149.62 0 88.76 -474.24zm1529.29 152.16c-441.27,0 -740.53,355.05 -740.53,783.64 0,309.4 210.49,514.82 524.96,514.82 428.6,0 740.53,-332.23 740.53,-786.18 0,-284.04 -192.74,-512.28 -524.96,-512.28zm-48.19 278.96c144.56,0 195.28,121.73 195.28,235.86 0,210.49 -114.12,504.67 -309.4,504.67 -129.34,0 -200.35,-96.37 -200.35,-240.92 0,-192.74 103.98,-499.61 314.47,-499.61zm583.35 920.59c73.54,53.26 220.63,93.83 377.87,96.37 329.68,2.54 570.61,-152.16 570.61,-436.2 0,-172.45 -142.02,-271.36 -278.97,-339.83 -98.9,-48.19 -149.62,-91.3 -149.62,-142.02 0,-68.47 63.4,-109.05 162.3,-109.05 106.52,0 195.28,30.43 246,53.26l88.76 -258.68c-60.86,-32.97 -174.99,-63.4 -319.54,-63.4 -319.54,0 -545.25,169.91 -545.25,428.59 0,154.7 119.19,258.68 261.21,329.69 114.12,55.79 154.7,98.9 154.7,159.77 0,60.86 -53.26,111.59 -157.23,111.59 -119.2,0 -251.07,-50.73 -322.08,-86.23l-88.76 256.14zm1366.98 -1402.44l-45.65 233.32 -159.77 0 -50.72 278.97 157.24 0 -93.84 490.3c-20.29,95.95 -27.89,164.42 -27.89,229.94 0,157.23 103.97,268.82 324.61,268.82 76.08,0 167.38,-10.15 215.57,-27.9l40.57 -286.57c-30.43,5.07 -68.47,5.07 -98.9,5.07 -81.16,0 -106.52,-42.69 -106.52,-103.56 0,-42.69 10.15,-108.62 20.29,-156.81l83.69 -419.29 263.75 0 55.79 -278.97 -266.28 0 63.4 -334.76 -375.34 101.44zm1501.4 1138.69c-98.9,48.19 -213.03,78.62 -347.44,78.62 -106.51,0 -190.2,-32.97 -238.38,-96.37 -25.37,-35.51 -38.05,-91.3 -40.58,-126.8 499.6,12.68 806.46,-101.45 806.46,-415.92 0,-230.78 -180.06,-372.79 -431.13,-372.79 -448.88,0 -722.77,393.08 -722.77,770.95 0,324.62 182.59,524.97 535.11,524.97 139.48,0 319.54,-25.36 464.09,-98.91l-25.36 -263.75zm-162.3 -563c0,116.66 -142.02,154.7 -428.6,152.16 25.36,-114.12 124.27,-256.14 294.18,-256.14 83.69,0 134.42,43.11 134.42,103.98zm730.43 897.76l86.23 -461.56c45.64,-243.46 154.69,-451.42 388.01,-451.42 20.29,0 40.58,0 58.33,2.54l71.01 -355.05c-22.82,-2.53 -45.65,-2.53 -68.47,-2.53 -169.92,0 -306.87,116.65 -395.63,281.5l-7.61 0c10.15,-86.23 15.22,-169.92 22.83,-253.61l-317.01 0c-12.68,106.52 -27.89,314.47 -63.4,502.14l-139.48 737.99 365.19 0zm857.24 -1709.3l-324.62 1709.3 365.2 0 134.41 -717.7 621.33 0 -134.41 717.7 365.19 0 324.61 -1709.3 -367.72 0 -126.81 666.98 -618.79 0 126.8 -666.98 -365.19 0zm2863.25 1727.05c-144.55,-25.36 -286.57,-58.33 -390.55,-86.22l0 -7.61c96.37,-38.04 182.6,-98.91 251.07,-164.84 182.6,-185.14 286.57,-494.53 286.57,-783.64 0,-380.41 -225.7,-712.63 -687.27,-712.63 -243.46,0 -474.24,91.29 -644.15,261.21 -192.74,197.81 -296.72,497.06 -296.72,786.17 0,431.13 261.21,689.81 593.44,712.63 17.75,0 40.57,7.61 121.73,43.12 152.16,73.54 405.76,172.45 639.08,240.92l126.8 -289.11zm-583.29 -1450.62c268.82,0 342.37,218.1 342.37,410.84 0,205.42 -78.62,489.46 -210.49,623.87 -78.62,76.08 -174.99,124.27 -286.58,124.27 -243.46,0 -355.04,-174.99 -355.04,-415.92 0,-197.81 76.08,-476.77 215.56,-616.26 78.62,-78.61 177.52,-126.8 294.18,-126.8z"/>
 </g>
</svg>
