<?xml version="1.0" encoding="UTF-8"?>
<!DOCTYPE svg PUBLIC "-//W3C//DTD SVG 1.1//EN" "http://www.w3.org/Graphics/SVG/1.1/DTD/svg11.dtd">
<!-- Creator: CorelDRAW -->
<svg xmlns="http://www.w3.org/2000/svg" xml:space="preserve" width="100mm" height="48.707mm" version="1.1" style="shape-rendering:geometricPrecision; text-rendering:geometricPrecision; image-rendering:optimizeQuality; fill-rule:evenodd; clip-rule:evenodd"
viewBox="0 0 10000 4870.7"
 xmlns:xlink="http://www.w3.org/1999/xlink"
 xmlns:xodm="http://www.corel.com/coreldraw/odm/2003">
 <defs>
  <style type="text/css">
   <![CDATA[
    .fil0 {fill:url(#id0)}
   ]]>
  </style>
  <linearGradient id="id0" gradientUnits="userSpaceOnUse" x1="4992.87" y1="4871.25" x2="4992.87" y2="0.52">
   <stop offset="0" style="stop-opacity:1; stop-color:#FF7200"/>
   <stop offset="1" style="stop-opacity:1; stop-color:#FFA00B"/>
  </linearGradient>
 </defs>
 <g id="Camada_x0020_1">
  <metadata id="CorelCorpID_0Corel-Layer"/>
  <path class="fil0" d="M3645.44 2520.2l964.2 910.71 5364.17 -2762.96c6.02,-3.09 13.34,-1.12 16.98,4.58 3.65,5.71 2.35,13.18 -2.99,17.33l-5372.39 4178.6c-5.3,4.12 -12.77,3.59 -17.43,-1.25l-2513.02 -2611.44c-64.14,-66.67 -144.31,-198.26 9.78,-213.14 296.93,-28.68 944.5,-15.92 1153.17,-242.98 300.31,-326.77 89.81,-918.85 -375.96,-918.85l-2385.48 0c-4.85,0 -9.01,-2.43 -11.39,-6.66l-480.47 -854.17c-2.34,-4.15 -2.3,-8.87 0.11,-12.99 2.41,-4.11 6.51,-6.46 11.27,-6.46l3288.36 0c429.26,0 782.26,157.81 1012.3,530.27 158.09,255.96 190.44,556.78 174.17,851.48 -30.14,546.33 -286.01,993.02 -835.38,1137.93zm-1980.32 628.51l0 1439.98c0,7.19 -5.86,13.05 -13.06,13.05l-984.41 0c-7.19,0 -13.06,-5.86 -13.06,-13.05l0 -3356.7c0,-7.2 5.87,-13.06 13.06,-13.06l984.41 0c7.2,0 13.06,5.86 13.06,13.06l0 1109.06 1069.88 1155.55c4.13,4.45 4.66,10.94 1.33,16.02 -3.33,5.07 -9.49,7.18 -15.22,5.17l-1055.99 -369.08zm5509.19 1431.91l0 -1240.35c0,-4.1 1.69,-7.62 4.89,-10.2l919.87 -736.55c4,-3.21 9.17,-3.8 13.81,-1.56 4.63,2.22 7.4,6.62 7.4,11.76l0 1976.9c0,7.19 -5.86,13.05 -13.05,13.05l-919.87 0c-7.19,0 -13.05,-5.86 -13.05,-13.05zm-1402.09 -3131.43l1321.4 -92.2 0 -1343.41c0,-7.2 5.86,-13.06 13.05,-13.06l1000.56 0c7.19,0 13.05,5.86 13.05,13.06l0 1210.34c0,5.04 -2.65,9.36 -7.14,11.63l-3348.61 1702.56c-4.17,2.13 -8.76,1.94 -12.75,-0.51 -3.98,-2.44 -6.22,-6.45 -6.22,-11.13l0 -2912.89c0,-7.2 5.86,-13.06 13.05,-13.06l1000.55 0c7.2,0 13.06,5.86 13.06,13.06l0 1435.61z"/>
 </g>
</svg>
